<svg xmlns="http://www.w3.org/2000/svg" xmlns:xlink="http://www.w3.org/1999/xlink" width="1920" zoomAndPan="magnify" viewBox="0 0 1440 1439.999935" height="1920" preserveAspectRatio="xMidYMid meet" version="1.0"><defs><g/></defs><g fill="#000000" fill-opacity="1"><g transform="translate(414.722252, 1093.725764)"><g><path d="M 589.6875 -213.328125 C 589.6875 -206.390625 587.375 -199.453125 582.75 -192.515625 C 578.125 -185.578125 572.628906 -179.21875 566.265625 -173.4375 C 559.910156 -167.65625 552.972656 -162.738281 545.453125 -158.6875 C 537.941406 -154.644531 531.296875 -152.625 525.515625 -152.625 C 505.859375 -152.625 480.707031 -156.957031 450.0625 -165.625 C 419.425781 -174.300781 394.859375 -187.890625 376.359375 -206.390625 C 356.703125 -226.046875 339.359375 -249.457031 324.328125 -276.625 C 309.296875 -303.800781 292.53125 -343.984375 274.03125 -397.171875 C 261.3125 -346.296875 246.566406 -296 229.796875 -246.28125 C 213.035156 -196.5625 186.15625 -150.890625 149.15625 -109.265625 C 146.84375 -106.953125 143.375 -105.796875 138.75 -105.796875 C 130.65625 -105.796875 121.984375 -109.84375 112.734375 -117.9375 C 103.484375 -126.03125 98.859375 -134.125 98.859375 -142.21875 C 98.859375 -150.3125 97.988281 -169.097656 96.25 -198.578125 C 94.519531 -228.066406 92.5 -261.019531 90.1875 -297.4375 C 87.875 -333.863281 85.847656 -370.863281 84.109375 -408.4375 C 82.378906 -446.019531 81.515625 -476.953125 81.515625 -501.234375 C 81.515625 -512.796875 82.09375 -528.113281 83.25 -547.1875 C 84.40625 -566.269531 87.875 -582.75 93.65625 -596.625 C 94.8125 -598.9375 99.144531 -603.5625 106.65625 -610.5 C 114.175781 -617.4375 122.5625 -620.90625 131.8125 -620.90625 C 139.90625 -620.90625 144.53125 -615.703125 145.6875 -605.296875 C 146.84375 -594.890625 147.421875 -583.328125 147.421875 -570.609375 L 147.421875 -296.578125 C 147.421875 -290.796875 148.285156 -282.703125 150.015625 -272.296875 C 151.753906 -261.890625 154.359375 -254.375 157.828125 -249.75 C 170.546875 -277.5 182.394531 -310.160156 193.375 -347.734375 C 204.363281 -385.316406 215.0625 -421.160156 225.46875 -455.265625 C 235.875 -489.378906 246.28125 -518.285156 256.6875 -541.984375 C 267.09375 -565.691406 277.5 -577.546875 287.90625 -577.546875 C 299.46875 -577.546875 308.71875 -575.234375 315.65625 -570.609375 C 322.59375 -565.984375 328.375 -556.734375 333 -542.859375 C 338.78125 -509.328125 343.40625 -479.550781 346.875 -453.53125 C 350.34375 -427.519531 354.675781 -404.109375 359.875 -383.296875 C 365.082031 -362.484375 372.597656 -343.113281 382.421875 -325.1875 C 392.253906 -307.269531 405.84375 -290.796875 423.1875 -275.765625 C 439.375 -260.734375 457.582031 -249.75 477.8125 -242.8125 C 498.050781 -235.875 515.6875 -232.40625 530.71875 -232.40625 C 537.65625 -232.40625 545.171875 -233.847656 553.265625 -236.734375 C 561.359375 -239.628906 567.140625 -241.078125 570.609375 -241.078125 C 575.234375 -241.078125 579.566406 -237.03125 583.609375 -228.9375 C 587.660156 -220.84375 589.6875 -215.640625 589.6875 -213.328125 Z M 589.6875 -213.328125 "/></g></g></g></svg>